<svg width="1586" height="994.9999999999999" xmlns="http://www.w3.org/2000/svg" fill="none">
 <g>
  <title>Layer 1</title>
  <mask id="mask0" mask-type="alpha" maskUnits="userSpaceOnUse" x="3979" y="20" width="1245" height="907">
   <path d="m4685.1,692.37c62.79,58.797 146.96,98.887 228.45,98.887c97.54,0 152.32,-44.101 152.32,-112.251c0,-72.156 -56.12,-94.872 -136.28,-128.278l-118.91,-52.114c-86.84,-36.081 -176.35,-104.231 -176.35,-232.517c0,-138.971 122.92,-245.8753 292.59,-245.8753c102.87,0 201.74,42.7641 269.88,110.9143l-80.17,98.883c-54.78,-46.767 -114.89,-74.832 -189.71,-74.832c-82.84,0 -136.28,38.754 -136.28,102.895c0,68.15 66.81,93.541 138.95,122.937l117.58,49.445c104.2,44.094 176.34,109.571 176.34,236.516c0,141.647 -117.57,259.241 -313.95,259.241c-117.58,0 -231.14,-46.77 -313.97,-128.284l89.51,-105.567z" fill="white" id="svg_2"/>
   <path d="m4362.62,20.2217l151.8,0l0,604.9963c0,160.341 -95.1,300.471 -277.53,300.471c-124.11,8.087 -230.53,-77.445 -257.7,-164.555c22.61,-3.427 44.63,-6.938 72.11,-15.585c21.85,-6.876 54.53,-21.646 54.53,-21.646c24.6,39.224 68.15,65.29 117.77,65.29c76.79,0 139.04,-62.432 139.04,-139.447l-0.02,-629.5243z" fill="white" id="svg_3"/>
  </mask>
  <rect stroke="null" rx="11" id="svg_1" height="49.44628" width="271.6834" y="472.77684" x="644.91669" fill="#5865F2"/>
  <rect stroke="null" opacity="0.15" rx="9" id="svg_4" height="41.28929" width="224.30679" y="476.80031" x="648.73224" fill="#ffffff"/>
  <text font-weight="bold" xml:space="preserve" text-anchor="start" font-family="'Kumbh Sans'" font-size="30" stroke-width="0" id="svg_5" y="509.7416" x="657.67408" stroke="null" fill="#ffffff">BACK TO TOP</text>
  <rect transform="rotate(-45 890.778 493.434)" rx="2" stroke="null" id="svg_6" height="5.40539" width="17.35242" y="490.73171" x="882.10141" fill="#ffffff"/>
  <rect transform="rotate(45 899.681 493.434)" rx="2" stroke="null" id="svg_7" height="5.40539" width="17.35242" y="490.73171" x="891.00439" fill="#ffffff"/>
  <rect transform="rotate(90 895.547 499.794)" stroke="null" rx="2" id="svg_8" height="5.40539" width="18.62427" y="497.09102" x="886.23491" fill="#ffffff"/>
 </g>

</svg>